#!OML:ASF X:\für Bonn\!DataBase\2005_08_10_Bjorn_Final\c3d\bjorn.ASF
:FULLY-SPECIFIED
:DEGREES
571
root 0.77477 1.73406 18.1897 -442.305 -177.149 -718.074
lowerback -9.00524 3.5093 -2.51281
upperback -0.0224106 4.8499 -4.3882
thorax 5.19748 2.24618 -2.53433
lowerneck -17.1197 -7.66653 -7.14632
upperneck 9.08422 -10.3437 9.73279
head 6.43953 -4.69799 3.11305
rclavicle 6.36111e-015 -3.33958e-014
rhumerus -221.683 -212.476 109.625
rradius 127.153
rwrist -10.148
rhand -18.8961 14.4378
rfingers 7.12502
rthumb 7.40544 -15.4126
lclavicle 6.36111e-015 -3.33958e-014
lhumerus -13.4892 -60.2308 49.0014
lradius 105.302
lwrist 2.86872
lhand -25.2659 -377.967
lfingers 7.12502
lthumb 1.25476 12.009
rfemur -21.0967 -15.0331 15.7792
rtibia 31.8627
rfoot 12.7746 9.81902
rtoes -5.04615
lfemur 165.806 179.63 167.819
ltibia 22.1965
lfoot 3.83317 3.12385
ltoes 13.4601
572
root 0.77928 1.73621 18.1841 -442.213 -177.098 -718.116
lowerback -9.15534 3.4994 -2.47419
upperback -0.0748924 4.83651 -4.41107
thorax 5.23172 2.23946 -2.57475
lowerneck -17.0546 -7.69038 -7.10799
upperneck 9.01305 -10.415 9.86089
head 6.41837 -4.72975 3.14088
rclavicle -1.74931e-014 1.27222e-014
rhumerus -222.326 -212.318 109.343
rradius 127.549
rwrist -9.92976
rhand -19.1557 14.5108
rfingers 7.12502
rthumb 7.15489 -15.3483
lclavicle -1.74931e-014 1.27222e-014
lhumerus -14.4699 -60.1896 49.876
lradius 105.911
lwrist 2.97217
lhand -25.2059 -377.901
lfingers 7.12502
lthumb 1.31271 12.0752
rfemur -21.2162 -15.1372 15.7812
rtibia 31.8444
rfoot 12.815 10.0145
rtoes -4.99929
lfemur 165.654 179.527 167.767
ltibia 22.2944
lfoot 3.96925 2.99215
ltoes 13.401
573
root 0.782197 1.73825 18.18 -442.122 -177.045 -718.149
lowerback -9.29384 3.4897 -2.42082
upperback -0.130299 4.82076 -4.44785
thorax 5.25872 2.23186 -2.63911
lowerneck -16.9474 -7.71391 -7.06667
upperneck 8.88785 -10.4958 10.0384
head 6.37698 -4.76639 3.18435
rclavicle 4.45278e-014 -1.04362e-014
rhumerus -223.045 -212.156 108.981
rradius 127.935
rwrist -9.75295
rhand -19.3987 14.6328
rfingers 7.12502
rthumb 6.92031 -15.2341
lclavicle 4.45278e-014 -1.04362e-014
lhumerus -15.4883 -60.1412 50.7902
lradius 106.506
lwrist 3.09132
lhand -25.0961 -377.794
lfingers 7.12502
lthumb 1.41872 12.1811
rfemur -21.3313 -15.242 15.7709
rtibia 31.8282
rfoot 12.8612 10.2131
rtoes -5.02407
lfemur 165.503 179.55 167.709
ltibia 22.3851
lfoot 4.03612 2.95253
ltoes 13.153
574
root 0.785053 1.74006 18.1762 -442.015 -176.996 -718.183
lowerback -9.45797 3.48837 -2.36603
upperback -0.180495 4.81716 -4.48556
thorax 5.30617 2.22988 -2.70221
lowerneck -16.8649 -7.73716 -6.98446
upperneck 8.81714 -10.5754 10.1472
head 6.35057 -4.8036 3.19856
rclavicle -2.70347e-014 5.14852e-014
rhumerus -223.829 -211.955 108.586
rradius 128.296
rwrist -9.52472
rhand -19.63 14.7539
rfingers 7.12502
rthumb 6.69702 -15.1201
lclavicle -2.70347e-014 5.14852e-014
lhumerus -16.4758 -60.0897 51.6888
lradius 107.086
lwrist 3.18318
lhand -25.039 -377.692
lfingers 7.12502
lthumb 1.47394 12.2831
rfemur -21.4538 -15.273 15.7523
rtibia 31.8116
rfoot 12.9029 10.3147
rtoes -4.87048
lfemur 165.346 179.5 167.653
ltibia 22.4648
lfoot 4.12152 2.88193
ltoes 13.03
575
root 0.786638 1.74218 18.1722 -441.921 -176.914 -718.214
lowerback -9.6129 3.47794 -2.33878
upperback -0.222774 4.80389 -4.53179
thorax 5.35481 2.22219 -2.76075
lowerneck -16.7653 -7.75481 -6.89503
upperneck 8.71924 -10.646 10.2481
head 6.31108 -4.83804 3.21108
rclavicle 1.04958e-013 -4.73108e-014
rhumerus -224.62 -211.782 108.18
rradius 128.661
rwrist -9.3555
rhand -19.7933 14.8658
rfingers 7.12502
rthumb 6.53937 -15.0133
lclavicle 1.04958e-013 -4.73108e-014
lhumerus -17.5342 -60.0045 52.644
lradius 107.681
lwrist 3.28226
lhand -24.9162 -377.618
lfingers 7.12502
lthumb 1.59249 12.3563
rfemur -21.5609 -15.386 15.6967
rtibia 31.7973
rfoot 12.9583 10.5113
rtoes -4.92955
lfemur 165.206 179.431 167.555
ltibia 22.5315
lfoot 4.21264 2.77611
ltoes 12.8592
576
root 0.7887 1.74351 18.1697 -441.808 -176.843 -718.231
lowerback -9.76698 3.47804 -2.31199
upperback -0.282705 4.80258 -4.57995
thorax 5.38487 2.22006 -2.81993
lowerneck -16.647 -7.78035 -6.75087
upperneck 8.67139 -10.733 10.2803
head 6.27857 -4.88296 3.19129
rclavicle 8.26944e-014 -6.02318e-014
rhumerus -225.493 -211.562 107.719
rradius 129.003
rwrist -9.17302
rhand -19.9294 14.9676
rfingers 7.12502
rthumb 6.40798 -14.9155
lclavicle 8.26944e-014 -6.02318e-014
lhumerus -18.6033 -59.9479 53.6558
lradius 108.219
lwrist 3.37157
lhand -24.8311 -377.589
lfingers 7.12502
lthumb 1.67467 12.3846
rfemur -21.6807 -15.4269 15.6525
rtibia 31.7819
rfoot 12.9749 10.573
rtoes -4.87574
lfemur 165.049 179.343 167.471
ltibia 22.5845
lfoot 4.33716 2.67814
ltoes 12.6886
577
root 0.789203 1.74432 18.1665 -441.722 -176.779 -718.239
lowerback -9.89686 3.46297 -2.27201
upperback -0.325633 4.78114 -4.61204
thorax 5.4181 2.20938 -2.87341
lowerneck -16.5168 -7.80836 -6.63587
upperneck 8.59181 -10.8115 10.3057
head 6.23426 -4.92574 3.17586
rclavicle -1.59028e-015 3.40916e-014
rhumerus -226.343 -211.383 107.277
rradius 129.326
rwrist -9.00589
rhand -20.0328 15.0629
rfingers 7.12502
rthumb 6.30818 -14.8232
lclavicle -1.59028e-015 3.40916e-014
lhumerus -19.7649 -59.831 54.7595
lradius 108.745
lwrist 3.4179
lhand -24.7304 -377.637
lfingers 7.12502
lthumb 1.77192 12.3358
rfemur -21.7737 -15.5722 15.6086
rtibia 31.769
rfoot 13.0422 10.741
rtoes -4.88114
lfemur 164.929 179.278 167.389
ltibia 22.6287
lfoot 4.43883 2.59089
ltoes 12.6901
578
root 0.789539 1.74432 18.1636 -441.638 -176.722 -718.209
lowerback -10.0137 3.4392 -2.21921
upperback -0.371549 4.74626 -4.64786
thorax 5.44163 2.19275 -2.9408
lowerneck -16.3639 -7.82693 -6.47069
upperneck 8.50925 -10.882 10.2894
head 6.17914 -4.96677 3.14134
rclavicle 0 -1.30204e-014
rhumerus -227.223 -211.172 106.805
rradius 129.642
rwrist -8.83571
rhand -20.0136 15.0896
rfingers 7.12502
rthumb 6.3267 -14.7959
lclavicle 0 -1.30204e-014
lhumerus -20.9341 -59.7341 55.8461
lradius 109.261
lwrist 3.50156
lhand -24.6435 -377.707
lfingers 7.12502
lthumb 1.85588 12.2648
rfemur -21.8508 -15.6652 15.5721
rtibia 31.7505
rfoot 13.0794 10.7936
rtoes -4.98032
lfemur 164.793 179.219 167.321
ltibia 22.6711
lfoot 4.553 2.47543
ltoes 12.6872
